:SAMPLES-PER-SECOND 30
:FULLY-SPECIFIED
:DEGREES
189
root  44.2921 31.0513 49.4018 -38.0502 69.1579 -40.1608
RightUpLeg  -27.0236 -3.63435 7.77669
RightLeg  39.2376 6.77377 4.79924
RightFoot  0.373866 0.000671426 0.171435
RightToes  -47.7266 -0.282958 -0.353781
Spine  5.80335 -3.85222 3.61511
Spine1  11.5384 -6.77976 3.66641
HEad  36.4422 31.5335 -11.6839
LeftShoulder1  0 -2.42657e-020 -4.95415e-022
LeftArm  -42.8994 22.3599 -90.5331
LeftForeArm  53.9155 -22.5076 -4.15026
LeftHand  0.0851584 -8.43369 -1.52615
RightShoulder  0 2.42657e-020 1.07489e-018
RightArm  -21.7124 14.4551 66.2677
RightForeArm  164.075 71.5518 147.472
RightHand  -0.93596 26.1569 -3.65819
LeftUpLeg  -12.8328 2.38351 3.44178
LeftLeg  79.5914 1.55822 6.1557
LeftFoot  0.42863 -0.00131736 0.352178
LeftToes  4.66567 2.37847e-007 4.89147e-008
190
root  45.168 31.3211 49.6451 -47.5669 72.5647 -49.7934
RightUpLeg  -24.4155 -6.28796 7.37827
RightLeg  38.1654 5.23847 3.56967
RightFoot  -1.02056 -0.00324017 0.0137524
RightToes  -47.0161 -0.276814 -0.351103
Spine  5.97911 -2.72311 3.45744
Spine1  11.8555 -4.587 3.56575
HEad  37.3264 27.5994 -10.9537
LeftShoulder1  0 -2.42657e-020 -4.95415e-022
LeftArm  -42.8416 19.4758 -91.2957
LeftForeArm  52.3777 -20.089 -3.66144
LeftHand  0.132613 -8.52903 -2.14998
RightShoulder  0 2.42657e-020 1.07489e-018
RightArm  -13.7041 10.05 66.9641
RightForeArm  167.761 74.2988 140.455
RightHand  -2.76716 27.9321 -10.7262
LeftUpLeg  -18.7671 3.87688 3.92025
LeftLeg  82.2291 0.74451 3.63581
LeftFoot  -3.4455 0.00180815 0.0601089
LeftToes  5.81664 2.37847e-007 4.89147e-008
191
root  46.0043 31.838 49.7662 -56.8855 75.495 -58.9137
RightUpLeg  -20.3295 -7.17331 6.1808
RightLeg  34.4157 3.22041 1.89916
RightFoot  -0.79252 -0.0021514 0.0665404
RightToes  -46.6883 -0.272492 -0.34856
Spine  6.26185 -1.1169 2.72142
Spine1  12.3268 -1.47001 2.66751
HEad  38.1348 22.0238 -8.69511
LeftShoulder1  0 -2.42657e-020 -4.95415e-022
LeftArm  -42.1717 16.361 -91.0491
LeftForeArm  52.1316 -18.4519 -3.33799
LeftHand  0.179586 -8.58581 -2.76422
RightShoulder  0 2.42657e-020 1.07489e-018
RightArm  -7.09055 7.15615 69.6815
RightForeArm  123.342 79.8694 84.7408
RightHand  -5.44621 29.9777 -19.7804
LeftUpLeg  -23.3974 5.68229 3.57157
LeftLeg  80.3166 0.684027 2.84748
LeftFoot  -5.90156 -0.0032455 -0.0629717
LeftToes  3.17938 2.37847e-007 4.89147e-008
192
root  46.7877 32.4412 49.6761 -70.5539 78.8828 -72.5872
RightUpLeg  -15.9077 -8.59536 3.87192
RightLeg  29.5681 1.36367 0.653261
RightFoot  0.259529 0.000587653 0.117763
RightToes  -46.2039 -0.269841 -0.347111
Spine  6.43386 -0.0700623 1.72212
Spine1  12.5251 0.597645 1.19511
HEad  38.9704 16.9645 -6.29605
LeftShoulder1  0 -2.42657e-020 -4.95415e-022
LeftArm  -41.7753 14.122 -90.3082
LeftForeArm  52.7235 -17.1665 -3.08709
LeftHand  0.234581 -8.87519 -3.39462
RightShoulder  0 2.42657e-020 1.07489e-018
RightArm  -3.30812 10.0886 74.9503
RightForeArm  66.9636 62.1351 19.5034
RightHand  -5.99234 30.2829 -21.5288
LeftUpLeg  -27.3459 7.0336 2.30889
LeftLeg  75.0207 1.99575 5.86701
LeftFoot  -9.07505 -0.0633256 -0.797941
LeftToes  5.77065 2.37847e-007 4.89147e-008
193
root  47.5715 32.9214 49.4574 -96.1362 81.5658 -98.763
RightUpLeg  -12.1816 -10.3239 1.11487
RightLeg  25.3258 -0.796109 -0.320474
RightFoot  1.33523 0.00217252 0.191007
RightToes  -46.2675 -0.270385 -0.347721
Spine  6.81484 1.4885 0.798944
Spine1  13.0419 4.55955 -1.43696
HEad  40.239 11.7508 -3.53721
LeftShoulder1  0 -2.42657e-020 -4.95415e-022
LeftArm  -40.0442 11.7588 -89.2756
LeftForeArm  53.2374 -17.2391 -3.10013
LeftHand  0.241067 -9.21595 -3.36276
RightShoulder  0 2.42657e-020 1.07489e-018
RightArm  -6.85247 16.1759 79.5003
RightForeArm  58.4907 36.0766 7.33725
RightHand  -3.71223 29.534 -13.6504
LeftUpLeg  -30.716 7.75954 0.614047
LeftLeg  67.3119 4.00143 7.99839
LeftFoot  -11.4058 -0.151961 -1.52159
LeftToes  9.4519 2.37847e-007 4.89147e-008
194
root  48.3851 33.1003 49.1539 -129.833 81.5159 -133.535
RightUpLeg  -10.4206 -13.2056 -1.56762
RightLeg  24.3963 -2.3233 -0.881934
RightFoot  1.32516 0.000250444 0.355706
RightToes  -47.4489 -0.280552 -0.35322
Spine  7.7994 3.83383 0.35691
Spine1  14.1492 10.7785 -4.32822
HEad  41.0306 6.25687 -1.37879
LeftShoulder1  0 -2.42657e-020 -4.95415e-022
LeftArm  -37.619 8.26971 -88.8966
LeftForeArm  53.7021 -18.1033 -3.2669
LeftHand  0.254115 -9.77559 -3.34321
RightShoulder  0 2.42657e-020 1.07489e-018
RightArm  -18.878 21.2413 79.9623
RightForeArm  63.7236 21.3109 3.88454
RightHand  0.0926924 28.7669 0.731613
LeftUpLeg  -33.5918 8.61077 -1.36942
LeftLeg  57.9555 6.33686 8.71453
LeftFoot  -12.1452 -0.209233 -1.96655
LeftToes  10.1924 2.37847e-007 4.89147e-008
195
root  49.1443 33.102 48.797 -149.345 79.0182 -154.343
RightUpLeg  -9.36693 -15.9784 -3.53197
RightLeg  24.4842 -3.09775 -1.1797
RightFoot  0.989669 -0.00451059 0.454717
RightToes  -48.935 -0.293498 -0.359837
Spine  7.99946 5.27828 0.228465
Spine1  14.1039 14.2611 -4.86625
HEad  41.9283 0.624072 0.28751
LeftShoulder1  0 -2.42657e-020 -4.95415e-022
LeftArm  -35.7312 6.39831 -89.1947
LeftForeArm  54.7401 -17.4117 -3.13058
LeftHand  0.330093 -10.4268 -3.98914
RightShoulder  0 2.42657e-020 1.07489e-018
RightArm  -38.4411 24.8554 77.0393
RightForeArm  78.3035 5.62818 0.908968
RightHand  1.60277 24.6812 7.68848
LeftUpLeg  -35.9913 10.295 -3.45895
LeftLeg  47.8198 7.77754 7.47421
LeftFoot  -11.4086 -0.191984 -1.92181
LeftToes  9.14816 2.37847e-007 4.89147e-008
196
root  49.9144 33.046 48.3581 -157.497 75.5953 -163.699
RightUpLeg  -7.79991 -19.1079 -4.95082
RightLeg  23.9848 -3.3655 -1.24738
RightFoot  0.989452 -0.00370601 0.419712
RightToes  -51.0571 -0.312273 -0.3687
Spine  7.58082 5.70966 0.204507
Spine1  13.3921 14.7564 -3.92377
HEad  41.8496 -4.81618 1.98425
LeftShoulder1  0 -2.42657e-020 -4.95415e-022
LeftArm  -34.5896 6.13589 -89.4273
LeftForeArm  55.4481 -16.8293 -3.0169
LeftHand  0.448028 -11.0732 -4.99258
RightShoulder  0 2.42657e-020 1.07489e-018
RightArm  -36.3793 19.9705 72.5873
RightForeArm  59.8171 2.88946 0.473487
RightHand  0.968597 18.2096 6.41068
LeftUpLeg  -37.6431 12.749 -5.94311
LeftLeg  38.7082 7.45282 5.18961
LeftFoot  -11.0749 -0.16111 -1.66169
LeftToes  7.42713 2.37847e-007 4.89147e-008
197
root  50.8389 32.9201 47.6991 -163.795 71.757 -170.406
RightUpLeg  -4.76638 -22.4478 -7.34382
RightLeg  23.6387 -3.64756 -1.32622
RightFoot  0.818379 -0.00394928 0.378194
RightToes  -53.2949 -0.332413 -0.377286
Spine  7.27807 5.20405 0.150662
Spine1  12.9573 13.2705 -3.23349
HEad  41.3272 -8.2065 3.28858
LeftShoulder1  0 -2.42657e-020 -4.95415e-022
LeftArm  -35.9421 7.17999 -89.4324
LeftForeArm  56.2362 -17.5008 -3.14481
LeftHand  0.567178 -11.5615 -5.97154
RightShoulder  0 2.42657e-020 1.07489e-018
RightArm  -39.4964 14.3165 70.941
RightForeArm  46.1309 3.63417 0.629384
RightHand  0.0505111 14.2164 0.775416
LeftUpLeg  -37.2735 13.9234 -8.62915
LeftLeg  32.7923 7.48291 4.14356
LeftFoot  -11.7367 -0.178759 -1.73909
LeftToes  8.40822 2.37847e-007 4.89147e-008
198
root  51.9395 32.7266 46.8959 -167.995 67.7053 -174.069
RightUpLeg  -0.428197 -24.8099 -10.095
RightLeg  23.7584 -4.4482 -1.62639
RightFoot  1.35421 -0.00146514 0.296404
RightToes  -56.7258 -0.3639 -0.388905
Spine  7.2282 4.22854 0.413864
Spine1  13.0525 10.9537 -2.27696
HEad  41.6884 -10.1227 3.62258
LeftShoulder1  0 -2.42657e-020 -4.95415e-022
LeftArm  -36.5616 8.7947 -89.5435
LeftForeArm  54.7795 -17.9232 -3.22973
LeftHand  0.467603 -11.0352 -5.21098
RightShoulder  0 2.42657e-020 1.07489e-018
RightArm  -65.5832 10.141 70.5624
RightForeArm  56.3685 5.33766 0.911858
RightHand  0.173294 18.9684 1.40777
LeftUpLeg  -34.8311 13.1915 -9.67708
LeftLeg  31.1287 7.99143 4.12623
LeftFoot  -11.2679 -0.175554 -1.77944
LeftToes  9.2467 2.37847e-007 4.89147e-008
